<svg width="24" height="24" viewBox="0 0 24 24" fill="none" xmlns="http://www.w3.org/2000/svg">
<path d="M0.857143 4.40816H23.1429C23.6163 4.40816 24 3.96961 24 3.42857V0.979592C24 0.438551 23.6163 0 23.1429 0H0.857143C0.383732 0 0 0.438551 0 0.979592V3.42857C0 3.96961 0.383732 4.40816 0.857143 4.40816ZM0.857143 14.2041H23.1429C23.6163 14.2041 24 13.7655 24 13.2245V10.7755C24 10.2345 23.6163 9.79592 23.1429 9.79592H0.857143C0.383732 9.79592 0 10.2345 0 10.7755V13.2245C0 13.7655 0.383732 14.2041 0.857143 14.2041ZM0.857143 24H23.1429C23.6163 24 24 23.5614 24 23.0204V20.5714C24 20.0304 23.6163 19.5918 23.1429 19.5918H0.857143C0.383732 19.5918 0 20.0304 0 20.5714V23.0204C0 23.5614 0.383732 24 0.857143 24Z" fill="#F09C46"/>
</svg>
