<svg xmlns="http://www.w3.org/2000/svg" viewBox="0 0 51.05 131.2"><defs><style>.cls-1{fill:#6fc5a8;}.cls-2{fill:#82cdb4;}</style></defs><g id="Layer_2" data-name="Layer 2"><g id="Layer_1-2" data-name="Layer 1"><path class="cls-1" d="M10.43,118.17c5.32-4.28,8.32-9.61,11-15.07,7.59-15.22,15.82-30.2,19.74-46.94,5.95-25.35-5.57-41-26.39-50.79C12.48,4.27,7.87,4.13,9,.8c.72-2.07,4.73.43,7.1,1.25C26.5,5.66,35.85,11,42.74,19.67c10.45,13.19,9.68,27.91,5.11,42.88-5.64,18.52-13.53,36.2-21.25,53.91-1.5,3.43-1,4.32,2.41,4.37a5.42,5.42,0,0,1,1,.21c3.3.68,7.63,1.48,7.29,5.3-.36,4.14-5,2.6-7.88,2.93-5.44.61-10.9,1-16.33,1.71-7.71,1-10.21-1-11-8.45C1.51,117.94.66,113.4.08,108.82c-.21-1.66-.15-3.52,1.77-4.23,2.25-.82,3.26,1,4.32,2.48C8.47,110.22,8.69,114.19,10.43,118.17Z"/><path class="cls-2" d="M37.93,36.42a65.91,65.91,0,0,0-8.7-14.94C34.54,21.68,39,29.2,37.93,36.42Z"/></g></g></svg>