<svg xmlns="http://www.w3.org/2000/svg" viewBox="0 0 51.05 131.2"><defs><style>.cls-1{fill:#6fc5a8;}.cls-2{fill:#82cdb4;}</style></defs><g id="Layer_2" data-name="Layer 2"><g id="Layer_1-2" data-name="Layer 1"><path class="cls-1" d="M40.62,118.17c-5.33-4.28-8.32-9.61-11-15.07C22,87.88,13.76,72.9,9.83,56.16c-5.94-25.35,5.58-41,26.4-50.79C38.57,4.27,43.17,4.13,42,.8c-.72-2.07-4.73.43-7.1,1.25C24.55,5.66,15.19,11,8.3,19.67-2.14,32.86-1.37,47.58,3.19,62.55c5.64,18.52,13.54,36.2,21.26,53.91,1.49,3.43,1,4.32-2.41,4.37a5.72,5.72,0,0,0-1,.21c-3.3.68-7.63,1.48-7.29,5.3.37,4.14,4.95,2.6,7.89,2.93,5.44.61,10.9,1,16.33,1.71,7.71,1,10.2-1,11-8.45.51-4.59,1.36-9.13,1.93-13.71.21-1.66.15-3.52-1.76-4.23-2.25-.82-3.26,1-4.32,2.48C42.58,110.22,42.36,114.19,40.62,118.17Z"/><path class="cls-2" d="M13.11,36.42a65.91,65.91,0,0,1,8.7-14.94C16.5,21.68,12,29.2,13.11,36.42Z"/></g></g></svg>