<svg width="468" height="252" viewBox="0 0 468 252" fill="none" xmlns="http://www.w3.org/2000/svg">
<path d="M64.4555 151.336H140.496V215.016H64.4555V151.336Z" fill="white" stroke="#060606" stroke-miterlimit="10"/>
<path fill-rule="evenodd" clip-rule="evenodd" d="M75.9856 95.426V95.566C75.7256 97.246 74.5556 99.086 74.4356 101.256C72.7556 100.256 71.1855 98.8159 70.0355 98.8259C66.5655 98.8759 65.1556 103.756 61.8456 106.396C58.9056 108.226 55.1656 108.396 51.8456 108.816H51.5355C40.0355 110.456 30.0256 117.716 23.2056 126.886C7.4256 149.376 5.98555 178.516 1.90555 204.886C1.24554 212.576 -0.964417 223.246 6.44559 228.316C6.15559 228.406 4.27554 228.096 4.83554 228.666C12.8955 231.116 21.4756 230.576 29.5556 228.446C29.2356 230.646 28.9256 232.856 28.5556 235.066C28.4891 235.325 28.4821 235.595 28.5349 235.857C28.5878 236.118 28.6992 236.365 28.8608 236.577C29.0224 236.79 29.2301 236.963 29.4681 237.084C29.7062 237.205 29.9686 237.271 30.2356 237.276C64.3856 237.046 98.5256 236.216 132.676 235.786H133.596C140.376 235.696 147.156 235.666 153.926 235.906C156.376 235.996 158.776 236.286 161.206 236.506C161.641 236.497 162.066 236.376 162.441 236.154C162.815 235.933 163.126 235.617 163.343 235.24C163.559 234.862 163.674 234.435 163.676 234C163.679 233.564 163.568 233.136 163.356 232.756C162.989 231.911 162.54 231.103 162.016 230.346C166.106 206.236 156.686 182.856 152.526 159.416C149.386 136.326 145.426 115.986 119.346 111.836C118.756 110.416 118.716 107.436 117.846 106.386C117.146 104.136 113.146 102.506 110.736 103.646C108.176 97.936 107.576 91.716 102.076 87.876C96.5756 84.036 83.4156 85.876 78.1955 89.816C75.8856 91.696 76.2556 93.466 75.9856 95.426ZM134.846 176.796L134.626 179.796C133.626 181.696 131.766 187.796 130.136 190.246C127.136 194.786 117.916 196.886 112.656 194.866C110.116 194.016 106.296 192.736 105.026 190.246C103.116 185.816 107.656 181.366 108.496 176.806C108.736 175.516 107.316 174.006 107.236 172.726C107.376 171.48 107.376 170.222 107.236 168.976C106.406 165.976 104.316 163.776 105.026 160.716C103.846 161.166 103.096 159.906 104.116 159.576L105.646 159.366C106.156 158.556 106.566 158.496 107.526 157.866C107.956 157.586 126.886 155.026 134.216 160.116C135.846 161.256 135.376 169.316 134.846 176.796Z" fill="white"/>
<path fill-rule="evenodd" clip-rule="evenodd" d="M62.0956 103.836C61.7423 104.07 61.4838 104.421 61.3665 104.828C61.2492 105.235 61.2807 105.67 61.4556 106.056C58.1756 107.496 54.4556 107.796 50.9356 108.276C47.4673 108.731 44.0513 109.522 40.7356 110.636C37.3998 111.724 34.2425 113.298 31.3656 115.306C28.4471 117.535 25.9251 120.239 23.9055 123.306C19.5582 129.751 16.0278 136.711 13.3955 144.026L13.1356 144.716C10.1008 152.648 7.61816 160.781 5.7056 169.056C4.6456 173.696 3.70558 178.396 2.93558 183.056C2.54558 185.386 2.20558 187.726 1.93558 190.056C1.66557 192.386 1.08559 194.966 1.38559 197.376C1.44128 197.843 1.6653 198.273 2.01559 198.586C1.41289 201.115 0.952164 203.676 0.63559 206.256C0.12764 210.074 -0.0763855 213.926 0.0255432 217.776C0.105545 220.876 0.315567 224.116 1.80557 226.916C2.59883 228.279 3.66139 229.466 4.9285 230.405C6.1956 231.344 7.6407 232.014 9.17557 232.376C16.0556 234.236 23.0656 231.936 29.3756 229.206L29.9656 228.946L30.4056 228.746C29.8456 230.416 29.6156 232.176 29.0156 233.826C28.9187 234.175 28.9409 234.546 29.0785 234.881C29.2161 235.216 29.4614 235.496 29.7756 235.676L29.8556 235.726H29.9056C30.1266 235.852 30.3764 235.917 30.6306 235.917C30.8847 235.917 31.1345 235.852 31.3556 235.726H31.4256L31.5956 235.596L31.6456 235.546C31.8641 235.34 32.0245 235.08 32.1105 234.792C32.1966 234.504 32.2052 234.198 32.1356 233.906V233.646C31.8656 231.866 31.9956 230.046 31.6356 228.276C37.6356 225.586 43.5056 222.616 49.2656 219.466C52.8456 217.516 56.3756 215.466 59.8256 213.306C61.5256 212.233 63.2122 211.143 64.8856 210.036L64.9956 209.966C66.6956 208.846 68.5956 207.856 69.6956 206.116C69.8671 205.847 69.9363 205.525 69.8904 205.21C69.8445 204.894 69.6866 204.605 69.4456 204.396C69.777 204.112 69.985 203.711 70.0256 203.276C72.6379 201.872 75.4561 200.889 78.3756 200.366L78.6456 200.306C82.4656 199.476 86.3356 198.856 89.9556 197.306C91.6986 196.562 93.3148 195.549 94.7456 194.306C96.3256 192.916 97.4956 191.146 98.9956 189.686C99.6863 188.981 100.513 188.423 101.426 188.046L102.106 187.806C102.512 189.644 103.269 191.385 104.336 192.936C105.654 194.602 107.577 195.68 109.686 195.936C112.115 196.24 114.558 196.413 117.006 196.456C119.506 196.586 122.216 196.986 124.666 196.296C128.726 195.166 131.376 190.696 133.056 187.066L133.156 186.846C134.889 182.927 135.941 178.74 136.266 174.466C136.635 169.506 136.315 164.519 135.316 159.646C135.27 159.479 135.181 159.326 135.058 159.203C134.936 159.081 134.783 158.992 134.616 158.946C126.336 156.406 116.906 155.416 108.416 157.576C108.491 157.194 108.453 156.797 108.306 156.436C107.906 155.486 106.856 155.236 105.966 154.946H105.836L102.246 153.756C100.246 153.106 98.2456 152.436 96.2956 153.616C95.42 154.194 94.6376 154.902 93.9756 155.716C93.5856 156.176 93.1956 156.656 92.8156 157.126C92.7556 157.206 92.5656 157.516 92.3956 157.816L92.0656 158.366C91.8456 158.256 91.7256 158.316 91.5456 158.496C91.5135 158.533 91.489 158.576 91.4736 158.622C91.4581 158.669 91.452 158.717 91.4556 158.766C88.1001 159.613 84.9966 161.252 82.4056 163.546C79.2556 166.466 77.2756 170.406 74.9456 173.956C73.6993 175.933 72.2111 177.747 70.5156 179.356C69.6983 180.098 68.7705 180.709 67.7656 181.166L67.7056 181.096C67.3332 180.714 66.8544 180.454 66.3317 180.349C65.809 180.243 65.2666 180.298 64.7756 180.506H64.6456C64.4753 180.226 64.2016 180.023 63.8836 179.943C63.5656 179.863 63.2287 179.91 62.9456 180.076C56.4756 183.716 49.8456 187.076 43.0656 190.076C40.9556 191.006 38.8356 191.926 36.7056 192.816C36.6949 192.348 36.5135 191.9 36.1956 191.556C36.0679 191.425 35.8989 191.341 35.7168 191.319C35.5348 191.297 35.3508 191.339 35.1956 191.436C37.5456 188.556 37.6456 184.666 37.7756 180.926V179.926C38.0056 173.856 38.4656 167.816 38.4256 161.736C38.4256 161.496 38.0256 161.416 37.9856 161.676C37.2056 166.576 36.7056 171.516 36.2256 176.446L35.9456 179.276C35.5756 183.066 35.9456 188.226 32.4856 190.776C32.329 190.897 32.198 191.047 32.1001 191.219C32.0022 191.391 31.9395 191.58 31.9156 191.776C30.7356 191.486 29.5256 191.256 28.3456 191.046L27.6455 190.926C25.7256 190.444 23.7551 190.192 21.7755 190.176C21.7451 190.177 21.7157 190.187 21.6917 190.206C21.6677 190.224 21.6504 190.25 21.6425 190.28C21.6346 190.309 21.6364 190.34 21.6478 190.369C21.6592 190.397 21.6795 190.42 21.7056 190.436C23.5107 191.191 25.3732 191.799 27.2755 192.256C29.2755 192.886 31.2756 193.626 33.2756 194.116H33.4756L32.9156 194.346C29.5056 195.716 26.0256 196.966 22.6656 198.456C22.4656 198.536 22.6656 198.806 22.8056 198.776C26.2644 198.093 29.6723 197.175 33.0056 196.026L33.7156 195.796C37.2356 194.626 40.7156 193.356 44.1456 191.946C50.8299 189.193 57.3566 186.072 63.6956 182.596C63.6156 183.086 63.5556 183.596 63.4856 184.056C63.3056 185.236 63.1356 186.426 62.9956 187.606C62.6396 189.956 62.4625 192.329 62.4656 194.706C62.5756 197.656 63.5556 201.296 65.9056 203.336C65.7591 203.566 65.7026 203.843 65.7468 204.112C65.7911 204.381 65.9331 204.625 66.1456 204.796C65.3356 205.276 64.5756 205.866 63.7756 206.406C62.3889 207.353 60.9856 208.283 59.5656 209.196C56.6856 211.07 53.7722 212.879 50.8256 214.626C45.0256 218.066 39.0956 221.246 32.9956 224.106C27.0656 226.876 20.6256 230.046 13.9356 229.956C11.0556 229.956 7.77554 229.266 5.64554 227.186C3.51553 225.106 3.10555 222.106 2.89554 219.366V218.856C2.62553 215.096 2.58557 211.346 2.67557 207.586C2.73557 205.326 2.90555 203.076 3.08554 200.826L3.21555 199.136C3.58276 199.153 3.9445 199.042 4.23837 198.821C4.53224 198.6 4.7399 198.284 4.82559 197.926C5.36057 195.833 5.6954 193.693 5.82559 191.536C6.05893 189.536 6.32224 187.536 6.61557 185.536C7.23557 181.396 7.98555 177.296 8.90555 173.216C10.7206 165.198 12.9774 157.286 15.6656 149.516C18.2556 142.046 21.1956 134.666 25.3756 127.936C27.1649 124.826 29.3646 121.97 31.9156 119.446C34.4532 117.239 37.3171 115.438 40.4056 114.106C43.8748 112.595 47.4769 111.41 51.1656 110.566L51.5656 110.466C55.2356 109.556 58.8356 108.636 61.9956 106.466C64.033 108.204 65.9198 110.11 67.6356 112.166C69.318 114.345 71.1278 116.422 73.0556 118.386C75.0207 120.307 77.3589 121.805 79.9256 122.786C82.6056 123.786 85.5156 124.106 87.9856 125.636C88.0918 125.694 88.214 125.716 88.3338 125.699C88.4536 125.682 88.5646 125.626 88.6502 125.541C88.7358 125.455 88.7913 125.344 88.8085 125.224C88.8257 125.105 88.8036 124.982 88.7456 124.876C87.3156 122.486 84.6256 121.296 82.1056 120.406L81.5956 120.226C79.1447 119.381 76.9279 117.97 75.1256 116.106C73.2256 114.176 71.6256 111.976 69.9256 109.866C68.6167 108.131 67.1541 106.518 65.5556 105.046C66.1956 104.356 66.8256 103.666 67.4156 102.946C68.347 101.74 69.1608 100.448 69.8456 99.0862C69.9069 98.962 69.9235 98.8205 69.8924 98.6856C69.8613 98.5507 69.7845 98.4306 69.675 98.3459C69.5655 98.2611 69.4301 98.2168 69.2917 98.2205C69.1532 98.2242 69.0204 98.2757 68.9156 98.3662C66.7765 100.351 64.4973 102.179 62.0956 103.836ZM137.616 191.096L137.566 191.746C136.969 200.771 136.882 209.822 137.306 218.856L137.376 220.376C137.466 222.536 137.576 224.706 137.816 226.846C137.947 228.206 138.229 229.548 138.656 230.846C138.997 231.959 139.215 233.106 139.306 234.266L139.406 235.176C139.476 235.886 140.566 235.916 140.526 235.176C140.451 234.064 140.451 232.948 140.526 231.836C140.646 230.566 140.996 229.346 141.036 228.066C141.126 225.696 140.966 223.306 140.886 220.936C140.736 216.256 140.656 211.576 140.606 206.886V206.436C140.496 197.736 140.266 188.996 141.536 180.356C142.236 175.576 143.306 170.876 144.456 166.176C144.463 166.14 144.457 166.102 144.44 166.07C144.422 166.037 144.394 166.011 144.36 165.997C144.326 165.983 144.288 165.981 144.252 165.992C144.217 166.003 144.186 166.025 144.166 166.056C139.326 173.376 138.236 182.576 137.616 191.096ZM140.236 124.966C145.516 131.206 148.116 139.446 149.876 147.306L149.976 147.786C151.776 155.966 153.366 164.196 154.976 172.416L155.976 177.916C156.666 181.576 157.366 185.246 158.046 188.916L158.176 189.606C158.986 193.916 159.896 198.216 160.516 202.606C161.236 207.78 161.719 212.973 161.966 218.186C162.139 223.389 162.022 228.597 161.616 233.786C161.496 235.586 164.526 236.036 164.806 234.216C166.206 225.006 165.436 215.506 164.146 206.316L164.056 205.676C162.786 196.736 161.056 187.906 159.216 179.076L158.846 177.316C156.846 167.836 155.076 158.316 153.106 148.836C151.336 140.306 149.106 131.766 143.706 124.736C140.972 121.107 137.41 118.186 133.316 116.216C129.189 114.373 124.878 112.971 120.456 112.036L119.846 111.896C119.516 111.816 119.416 112.266 119.716 112.396C127.176 115.436 134.876 118.626 140.236 124.966ZM99.7256 199.076L99.6556 200.386C99.6556 201.266 99.5656 202.136 99.5256 203.016C99.4056 205.716 99.2756 208.416 99.1156 211.116C99.0056 213.116 98.8556 215.056 98.7056 217.026L98.5556 219.026C98.3556 221.556 97.9656 224.476 98.7256 226.936C98.7902 227.104 98.8988 227.251 99.0399 227.362C99.181 227.473 99.3494 227.544 99.5273 227.567C99.7053 227.591 99.8864 227.566 100.051 227.495C100.217 227.425 100.36 227.311 100.466 227.166C101.449 224.964 101.95 222.578 101.936 220.166V219.446C102.076 216.746 102.136 214.056 102.146 211.356C102.156 208.656 102.086 206.096 101.956 203.476C101.886 202.086 101.766 200.696 101.636 199.316V199.206C101.629 198.03 101.388 196.868 100.926 195.786C100.886 195.726 100.833 195.677 100.77 195.643C100.707 195.609 100.637 195.591 100.566 195.591C100.494 195.591 100.424 195.609 100.361 195.643C100.298 195.677 100.245 195.726 100.206 195.786C99.8552 196.847 99.6928 197.96 99.7256 199.076ZM14.0156 199.246C12.8536 200.363 11.774 201.563 10.7856 202.836C9.68755 204.102 8.75046 205.5 7.99557 206.996C7.65558 207.776 7.59558 208.546 8.49557 208.826C8.5199 208.831 8.5451 208.829 8.56827 208.82C8.59143 208.811 8.61159 208.796 8.62631 208.776C8.64104 208.756 8.64977 208.732 8.6514 208.707C8.65303 208.683 8.64755 208.658 8.63559 208.636C8.41559 208.146 10.4956 206.266 10.7856 205.956L11.0855 205.626C11.9055 204.746 12.7356 203.896 13.6056 203.066C14.4756 202.236 15.6056 201.206 16.6056 200.346C17.6056 199.486 18.8755 198.886 19.1455 197.596C19.18 197.461 19.1839 197.321 19.1567 197.184C19.1295 197.048 19.0721 196.919 18.9886 196.808C18.9051 196.696 18.7977 196.605 18.6743 196.541C18.5509 196.477 18.4146 196.441 18.2755 196.436C16.7255 196.346 15.4156 197.916 14.3756 198.936L14.0356 199.266L14.0156 199.246ZM102.806 164.086H102.436C102.256 164.105 102.084 164.17 101.935 164.273C101.787 164.376 101.667 164.515 101.586 164.676C100.906 164.736 100.246 164.836 99.7056 164.906L99.3756 164.956C97.696 165.062 96.0744 165.61 94.6756 166.546C94.4056 166.766 94.6756 167.126 94.9256 167.156C96.5856 167.346 98.3556 166.906 100.036 166.896C100.866 166.896 101.706 166.946 102.536 167.016C103.288 167.199 104.076 167.175 104.816 166.946C105.325 167.176 105.776 167.519 106.134 167.949C106.492 168.379 106.749 168.884 106.883 169.427C107.018 169.97 107.028 170.536 106.912 171.083C106.797 171.63 106.558 172.144 106.216 172.586C105.616 172.586 105.006 172.746 104.426 172.826C103.556 172.936 102.676 173.036 101.816 173.176C100.188 173.331 98.5856 173.687 97.0456 174.236C96.8856 174.306 96.9356 174.576 97.0956 174.616C98.3341 174.824 99.5933 174.881 100.846 174.786L102.026 174.726C103.186 174.726 104.536 174.726 105.776 174.576C105.916 174.827 106.139 175.022 106.407 175.128C106.675 175.234 106.971 175.244 107.246 175.156C107.272 175.164 107.299 175.164 107.326 175.156C107.413 175.221 107.482 175.307 107.526 175.406V175.486C107.65 175.733 107.702 176.011 107.676 176.286C107.387 177.185 106.94 178.025 106.356 178.766C106.071 179.28 105.853 179.828 105.706 180.396C104.86 180.281 104.001 180.312 103.166 180.486H102.956C102.04 180.572 101.131 180.719 100.236 180.926C100.204 180.935 100.175 180.953 100.155 180.98C100.135 181.006 100.124 181.038 100.124 181.071C100.124 181.104 100.135 181.136 100.155 181.163C100.175 181.189 100.204 181.208 100.236 181.216C100.99 181.395 101.755 181.526 102.526 181.606L102.956 181.656C103.782 181.814 104.626 181.868 105.466 181.816C105.491 182.197 105.433 182.579 105.294 182.935C105.156 183.291 104.941 183.612 104.666 183.876C103.386 184.876 101.446 184.996 99.9856 185.636C98.3382 186.464 96.8938 187.646 95.7556 189.096L95.5756 189.306C94.4688 190.736 93.1815 192.017 91.7456 193.116C90.3344 194.078 88.7963 194.838 87.1756 195.376C83.7956 196.516 80.2656 197.076 76.8056 197.916C73.9404 198.538 71.1881 199.597 68.6456 201.056C67.6284 200.363 66.7835 199.446 66.1756 198.376C65.388 196.72 64.9781 194.91 64.9756 193.076C64.8956 191.076 64.9756 188.996 64.9756 186.956C64.9756 185.956 64.9756 184.956 64.9756 184.026C64.9756 183.686 64.9756 183.336 64.9756 182.976C65.6906 183.024 66.4087 182.963 67.1056 182.796H67.2356C67.3659 182.762 67.488 182.702 67.5946 182.619C67.7011 182.537 67.7899 182.434 67.8556 182.316C69.7764 181.83 71.5882 180.985 73.1956 179.826C76.2956 177.706 78.1956 174.066 80.1956 170.986L80.2956 170.836C82.2956 167.696 84.5956 164.836 87.9656 163.086C91.3546 161.404 95.0485 160.425 98.8256 160.206C100.286 160.106 102.826 160.076 103.536 161.716C103.766 162.376 103.816 164.036 102.806 164.086ZM34.1756 193.676L34.2456 193.726L34.0856 193.796L34.1456 193.716L34.1756 193.676ZM133.456 160.676C134.646 168.066 134.606 175.846 132.016 182.936C130.786 186.316 128.826 190.136 126.016 192.446C124.266 193.856 122.216 193.836 120.076 193.726L118.686 193.646C116.836 193.536 114.976 193.426 113.126 193.336H113.026C111.026 193.236 108.616 193.246 107.086 191.726C105.986 190.432 105.251 188.869 104.956 187.196L104.866 186.856C105.675 186.574 106.395 186.084 106.953 185.434C107.512 184.784 107.889 183.998 108.046 183.156C108.112 181.965 108.426 180.8 108.966 179.736C109.72 178.736 110.214 177.564 110.406 176.326C110.426 175.751 110.325 175.178 110.108 174.646C109.89 174.113 109.563 173.633 109.146 173.236C109.575 172.478 109.836 171.637 109.91 170.77C109.985 169.902 109.872 169.029 109.579 168.209C109.286 167.389 108.819 166.642 108.211 166.018C107.603 165.395 106.868 164.91 106.056 164.596C106.376 163.843 106.511 163.024 106.449 162.207C106.386 161.391 106.128 160.602 105.696 159.906C106.298 159.851 106.873 159.623 107.348 159.248C107.824 158.874 108.181 158.369 108.376 157.796C112.643 157.586 116.919 157.666 121.176 158.036C125.349 158.491 129.467 159.366 133.466 160.646L133.456 160.676ZM85.4156 170.376C85.9956 171.436 84.9656 172.826 85.0356 173.996C85.0671 174.606 85.2059 175.205 85.4456 175.766C85.6856 176.336 86.1256 176.766 86.3556 177.376C86.7856 178.376 86.3556 179.696 86.6856 180.786C87.0356 182.046 88.0756 183.046 89.4256 182.616C89.6099 182.552 89.7716 182.436 89.8907 182.281C90.0097 182.127 90.081 181.941 90.0956 181.746C90.1227 181.312 90.0788 180.876 89.9656 180.456L89.8656 180.066C89.771 179.498 89.7208 178.923 89.7156 178.346C89.6037 177.086 89.1316 175.885 88.3556 174.886C87.6056 173.786 87.7556 172.676 87.4456 171.446C87.3671 171.031 87.1628 170.65 86.8605 170.355C86.5582 170.06 86.1725 169.865 85.7556 169.796C85.6876 169.796 85.6209 169.814 85.562 169.848C85.5031 169.882 85.4541 169.93 85.4197 169.989C85.3854 170.048 85.3669 170.114 85.3662 170.182C85.3655 170.25 85.3825 170.317 85.4156 170.376ZM64.9156 158.376C62.8156 158.766 60.7156 159.116 58.6056 159.446C56.4956 159.776 54.3756 160.056 52.2556 160.316C50.2311 160.481 48.224 160.815 46.2556 161.316C46.0456 161.376 46.0056 161.746 46.2556 161.786C48.0595 161.996 49.8817 161.996 51.6856 161.786L52.5056 161.716C54.6256 161.536 56.7456 161.306 58.8656 161.046C60.9856 160.786 62.9756 160.496 65.0256 160.156C66.1156 159.976 67.1956 159.776 68.2856 159.576H68.3656C69.2995 159.56 70.2051 159.252 70.9556 158.696C71.0373 158.609 71.0954 158.503 71.1244 158.387C71.1534 158.271 71.1523 158.15 71.1212 158.035C71.0902 157.92 71.0302 157.814 70.9469 157.729C70.8636 157.643 70.7599 157.58 70.6456 157.546C69.7456 157.196 68.7056 157.626 67.7956 157.806L64.9156 158.376ZM103.446 156.846C103.576 156.846 104.446 157.206 105.086 157.446L105.416 157.566L105.266 157.716L105.196 157.786C104.933 158.039 104.695 158.317 104.486 158.616C101.926 156.676 97.8756 157.306 94.8256 157.896L94.2256 158.006C95.4156 157.006 96.7556 155.586 98.2256 155.336C99.113 155.311 99.9927 155.507 100.786 155.906L103.446 156.846ZM73.8356 100.656L73.7756 100.796C72.6055 100.007 71.375 99.3117 70.0956 98.7162C69.9356 98.6462 69.7856 98.8662 69.8756 99.0062C70.7395 100.174 71.7943 101.189 72.9956 102.006L73.7256 102.556C75.1744 103.637 76.7096 104.597 78.3156 105.426C80.0044 106.3 81.7519 107.055 83.5456 107.686C84.2356 107.926 85.4556 108.066 85.9756 108.626C86.3707 109.272 86.5132 110.041 86.3756 110.786V111.206C86.1156 114.626 84.7956 118.106 86.9256 121.206C87.9898 122.555 89.1931 123.789 90.5156 124.886C91.5931 125.98 92.4398 127.279 93.0056 128.706L93.2456 129.236C93.0081 132.29 93.431 135.36 94.4856 138.236C95.2256 140.476 96.0956 142.656 96.8656 144.876C97.6356 147.096 97.9556 149.656 99.2056 151.726C99.2842 151.854 99.398 151.956 99.5334 152.021C99.6687 152.086 99.8198 152.11 99.9687 152.091C100.117 152.072 100.258 152.011 100.372 151.914C100.487 151.817 100.572 151.69 100.616 151.546C101.069 149.756 100.94 147.868 100.246 146.156L100.076 145.616C99.4856 143.676 98.7556 141.776 98.0756 139.866L98.0256 139.726C96.7556 136.176 95.5456 132.246 96.4156 128.466C96.8351 126.822 97.6485 125.305 98.7856 124.046V123.986C99.9056 122.566 100.366 120.986 99.4156 119.346C99.1156 118.816 98.5656 118.346 98.8256 117.706C99.1882 117.072 99.7218 116.552 100.366 116.206L100.776 115.946C102.206 115.036 103.616 114.176 104.966 113.126C108.228 110.58 111.041 107.503 113.286 104.026C113.356 103.926 113.216 103.836 113.136 103.906C110.184 106.51 107.012 108.852 103.656 110.906C102.036 111.906 100.286 112.696 98.7256 113.756C98.0078 114.154 97.3793 114.694 96.8788 115.345C96.3782 115.995 96.0164 116.741 95.8156 117.536C95.6949 118.414 95.8784 119.307 96.3356 120.066C96.7856 120.896 97.2456 121.166 96.6056 122.006C95.7047 123.095 94.9142 124.271 94.2456 125.516C93.5104 124.391 92.6142 123.381 91.5856 122.516L91.3756 122.326C90.2298 121.453 89.2794 120.349 88.5856 119.086C88.1531 117.85 88.0974 116.514 88.4256 115.246L88.4956 114.846C88.9456 112.346 89.8256 108.496 87.4956 106.636C86.3956 105.756 84.7756 105.586 83.4956 105.166C82.2156 104.746 80.6156 104.166 79.2156 103.536C78.1156 103.066 77.0456 102.536 75.9856 101.986V101.916C77.6872 98.8715 78.459 95.3948 78.2056 91.9162C78.0756 90.3162 75.5656 90.3062 75.6856 91.9162C75.9372 94.9317 75.2937 97.9546 73.8356 100.606V100.656ZM115.836 113.816C115.342 114.902 114.777 115.954 114.146 116.966C112.929 119.009 111.593 120.979 110.146 122.866C109.482 123.731 108.568 124.37 107.529 124.697C106.49 125.024 105.375 125.024 104.336 124.696C102.886 124.246 101.176 122.356 99.6656 123.576C99.5556 123.666 99.6656 123.846 99.8056 123.806C101.106 123.376 102.226 125.136 103.246 125.716C104.122 126.191 105.091 126.471 106.086 126.536C107.2 126.596 108.313 126.396 109.337 125.952C110.361 125.507 111.268 124.831 111.986 123.976C113.709 122.114 115.268 120.107 116.646 117.976C117.353 116.874 117.965 115.713 118.476 114.506L118.526 114.376C119.109 113.245 119.488 112.019 119.646 110.756C119.736 109.086 117.396 108.976 116.876 110.386C116.496 111.476 116.376 112.666 115.886 113.766L115.836 113.816ZM117.956 108.186C119.286 109.466 121.046 107.316 119.526 106.186C118.526 105.386 117.526 104.566 116.456 103.736C115.577 102.94 114.655 102.193 113.696 101.496C113.654 101.473 113.608 101.462 113.56 101.466C113.513 101.469 113.468 101.486 113.431 101.515C113.394 101.544 113.366 101.583 113.351 101.628C113.335 101.672 113.334 101.721 113.346 101.766C114.176 104.116 116.176 106.376 118.006 108.136L117.956 108.186ZM110.896 104.186C112.156 105.186 113.946 103.426 112.676 102.406L112.606 102.346C111.615 101.559 110.873 100.502 110.468 99.3026C110.064 98.1034 110.014 96.8128 110.326 95.5862C110.378 95.2754 110.311 94.9564 110.14 94.6921C109.968 94.4277 109.704 94.2373 109.399 94.1582C109.094 94.0791 108.771 94.1172 108.492 94.2649C108.214 94.4126 108.001 94.6592 107.896 94.9562C107.479 96.6165 107.545 98.361 108.085 99.9852C108.626 101.609 109.618 103.046 110.946 104.126L110.896 104.186Z" fill="#060606"/>
<path fill-rule="evenodd" clip-rule="evenodd" d="M61.8056 70.3161C61.8056 80.3161 57.6256 103.646 72.0556 109.166C86.4856 114.686 102.486 102.716 108.556 99.9261C114.626 97.1361 131.126 81.1661 131.126 55.8261C131.126 30.4861 129.176 15.3761 97.4156 14.3761C65.6556 13.3761 61.8056 60.2961 61.8056 70.3161Z" fill="white"/>
<path fill-rule="evenodd" clip-rule="evenodd" d="M122.026 79.1161C128.306 67.4561 127.266 53.596 125.796 40.746C125.657 40.7758 125.514 40.7758 125.376 40.746C124.276 40.456 123.536 39.336 122.756 38.566C121.976 37.796 121.046 36.876 120.166 36.076C118.466 34.536 116.699 33.0794 114.866 31.706C111.376 29.086 107.606 26.886 104.086 24.306L103.246 24.996C101.546 26.386 99.8556 27.786 98.1456 29.166C94.7756 31.886 91.4556 34.656 88.1456 37.436C81.6389 42.896 75.1056 48.3327 68.5456 53.746C67.7256 58.1717 67.7256 62.7104 68.5456 67.136C69.5213 71.9654 71.1109 76.6501 73.2756 81.076C75.7175 83.4265 78.3278 85.5956 81.0856 87.566C84.2805 89.8765 87.8027 91.6966 91.5356 92.966C97.8156 95.016 104.536 94.896 110.346 91.626C115.349 88.651 119.4 84.3115 122.026 79.1161ZM91.3156 104.936C92.3756 105.116 92.8356 103.486 91.7656 103.306C85.1256 102.176 78.5456 99.736 73.5156 95.126C72.7156 94.386 71.5156 95.586 72.3256 96.316C77.5656 101.126 84.3856 103.756 91.3156 104.936ZM79.2656 107.496C80.3356 107.676 80.7856 106.046 79.7156 105.866C75.35 105.245 71.1146 103.918 67.1756 101.936C66.1756 101.416 65.3556 102.876 66.3156 103.396C70.3812 105.456 74.755 106.841 79.2656 107.496ZM68.7656 52.666L68.6756 53.086C74.5956 47.286 80.6523 41.6194 86.8456 36.086C90.0756 33.206 93.3156 30.356 96.5356 27.496C98.1756 26.036 99.8456 24.606 101.536 23.176L104.026 21.036C104.326 20.776 104.616 20.506 104.926 20.256C100.573 20.3471 96.3353 21.6718 92.7056 24.076C89.0155 26.4568 85.5241 29.1322 82.2656 32.076C76.0756 37.696 70.7356 44.456 68.7656 52.666ZM105.766 22.886L104.956 23.546C109.04 24.8868 112.865 26.916 116.266 29.546C118.243 30.9903 120.139 32.5427 121.946 34.196C122.836 35.0061 123.696 35.836 124.546 36.686C124.796 36.946 125.096 37.216 125.386 37.496C125.386 37.316 125.386 37.136 125.316 36.956C125.273 36.5988 125.374 36.2392 125.596 35.956C124.44 31.9143 122.137 28.2948 118.965 25.5364C115.793 22.7779 111.889 20.9992 107.726 20.416C107.73 20.4793 107.73 20.5428 107.726 20.606C107.326 21.54 106.658 22.3337 105.806 22.886H105.766ZM136.176 48.376C136.737 56.8302 135.854 65.3183 133.566 73.4761C131.302 81.2762 127.815 88.668 123.236 95.376C123.486 95.756 123.746 96.126 124.016 96.496C125.146 98.086 126.276 99.6861 127.346 101.316C129.296 104.316 131.036 107.506 131.416 111.056C131.482 111.637 131.509 112.222 131.496 112.806C131.496 114.476 129.436 115.986 127.896 114.876C125.986 113.486 123.896 113.696 121.706 114.416C120.596 115.836 119.456 117.226 118.296 118.606C115.483 122.177 112.302 125.441 108.806 128.346C105.754 130.856 101.946 132.265 97.9956 132.346C93.7056 132.346 89.5956 130.786 85.7656 128.986C77.4956 125.106 69.4256 120.726 61.3256 116.506C57.2256 114.419 53.1756 112.309 49.1756 110.176C48.7756 109.966 48.3656 109.736 47.9656 109.486H47.6156C46.2856 109.486 44.6156 109.896 43.6156 108.736C43.2699 108.248 43.0842 107.664 43.0842 107.066C43.0842 106.468 43.2699 105.884 43.6156 105.396C44.462 104.181 45.4986 103.111 46.6856 102.226C47.8356 101.226 49.0356 100.366 50.2556 99.496C51.6656 98.496 53.1056 97.496 54.4956 96.496C54.5756 96.386 54.6456 96.2661 54.7156 96.146C56.0865 93.9316 56.9252 91.4294 57.1656 88.8361C56.6556 88.1961 56.1656 87.536 55.7356 86.8361C50.9156 79.356 48.2656 70.266 47.3456 61.476C46.3905 52.5725 47.4745 43.5684 50.5156 35.146C55.7956 20.816 67.0756 8.45604 81.3756 2.83604C88.2091 0.0771871 95.6845 -0.68907 102.936 0.626043C110.63 2.16994 117.634 6.12022 122.936 11.906C131.856 21.686 135.416 35.376 136.176 48.376Z" fill="#060606"/>
<path fill-rule="evenodd" clip-rule="evenodd" d="M106.986 82.376C108.367 82.9614 109.89 83.1304 111.366 82.8621C112.842 82.5938 114.208 81.9001 115.296 80.866C116.29 79.979 116.927 78.7593 117.086 77.436C117.099 77.2519 117.049 77.0687 116.946 76.916C116.841 76.7553 116.686 76.6349 116.504 76.5749C116.322 76.5149 116.125 76.5188 115.946 76.586C115.786 76.64 115.649 76.7456 115.556 76.886L115.076 77.376C114.012 78.6613 112.521 79.5204 110.876 79.796C109.986 79.8896 109.088 79.7301 108.286 79.336C107.46 78.931 106.746 78.3302 106.206 77.586L106.136 77.496C106.014 77.3035 105.853 77.1389 105.664 77.0131C105.474 76.8873 105.26 76.8031 105.036 76.766C104.804 76.7351 104.569 76.7511 104.344 76.8129C104.119 76.8747 103.909 76.9812 103.726 77.126C103.343 77.4085 103.085 77.8277 103.006 78.296C102.968 78.5238 102.978 78.7569 103.034 78.9806C103.091 79.2044 103.194 79.4139 103.336 79.596C104.273 80.8291 105.522 81.7889 106.956 82.376H106.986ZM112.906 60.826C121.026 62.216 116.816 76.196 106.456 68.526C105.226 67.526 106.716 65.336 108.046 66.196C109.486 67.296 112.396 69.726 114.416 67.606C116.126 65.196 113.696 62.936 112.106 61.966C111.686 61.666 112.016 60.666 112.906 60.826ZM93.3656 57.376C93.3854 57.7359 93.5239 58.079 93.7595 58.3517C93.995 58.6244 94.3143 58.8114 94.6674 58.8834C95.0205 58.9554 95.3876 58.9084 95.7111 58.7496C96.0346 58.5909 96.2964 58.3294 96.4556 58.006C97.3339 56.3262 97.6593 54.4118 97.3855 52.536C97.0455 50.366 93.7155 50.866 93.5456 53.056C93.3095 54.4833 93.2491 55.9341 93.3656 57.376ZM118.766 52.296C117.316 53.626 117.866 56.296 119.006 57.676C119.194 57.8638 119.422 58.006 119.674 58.0918C119.925 58.1775 120.193 58.2046 120.456 58.1708C120.72 58.137 120.972 58.0433 121.194 57.8969C121.416 57.7504 121.601 57.5552 121.736 57.326C122.616 55.596 123.356 52.026 120.846 51.326C120.48 51.2357 120.096 51.2635 119.747 51.4055C119.398 51.5474 119.104 51.7962 118.906 52.116L118.766 52.296ZM92.7056 44.766C90.4111 45.8739 88.5071 47.6523 87.2456 49.866C87.1256 50.106 87.3755 50.426 87.6355 50.256C89.4753 48.8956 91.5213 47.8388 93.6955 47.126C94.7215 46.8264 95.7784 46.6452 96.8456 46.586C98.1456 46.516 99.3456 46.856 100.436 45.976C100.695 45.7076 100.839 45.3491 100.839 44.976C100.839 44.603 100.695 44.2445 100.436 43.976C99.5656 42.976 98.0456 43.196 96.8156 43.406L96.4155 43.476C95.1236 43.7214 93.8739 44.1525 92.7056 44.756V44.766ZM115.586 42.576C115.266 42.7092 114.996 42.9402 114.816 43.236C114.699 43.4201 114.625 43.6273 114.597 43.8433C114.569 44.0593 114.589 44.2787 114.656 44.486C114.732 44.8152 114.923 45.1062 115.196 45.306C115.489 45.5176 115.835 45.6455 116.196 45.676C117.843 45.8767 119.467 46.235 121.046 46.746C121.773 46.9977 122.482 47.3018 123.166 47.656L123.766 47.946C124.35 48.2474 124.963 48.4886 125.596 48.666H125.766C125.821 48.6548 125.874 48.6321 125.921 48.5994C125.967 48.5667 126.006 48.5247 126.036 48.476C126.036 48.406 126.156 48.306 126.096 47.846C124.526 44.606 120.236 43.226 116.936 42.536L116.626 42.476C116.278 42.3976 115.915 42.429 115.586 42.566V42.576Z" fill="#060606"/>
<path fill-rule="evenodd" clip-rule="evenodd" d="M131.006 63.2561C135.726 58.6361 134.006 47.0561 126.576 46.2561C126.326 46.3861 126.126 46.2561 126.036 46.2561C125.017 46.4584 124.015 46.7324 123.036 47.0761C116.276 50.1461 111.986 61.5661 120.746 65.2361C122.465 65.9387 124.352 66.1237 126.174 65.7684C127.997 65.4131 129.676 64.5329 131.006 63.2361V63.2561ZM102.746 63.9061C108.116 56.9061 102.966 44.9061 90.4856 49.6261C84.5756 53.6261 81.4856 63.7261 90.1556 67.1361C92.3208 68.0342 94.7191 68.2048 96.9896 67.6223C99.2602 67.0397 101.28 65.7356 102.746 63.9061ZM84.0356 55.4561H84.0956L84.1756 55.3761L84.0356 55.4361V55.4561ZM136.946 51.3761C138.556 51.6861 137.886 54.1361 134.826 52.6061C139.426 71.8661 109.966 72.6861 114.936 54.3861C112.013 53.5299 108.881 53.7353 106.096 54.9661C108.446 63.3761 100.606 71.3761 91.5956 69.3761C85.7656 68.0161 81.8856 63.5061 83.6856 56.8661C82.5456 57.2261 80.3956 56.9261 79.7356 56.0361C72.3156 55.4061 65.0256 53.8961 57.5256 54.3561C56.1156 54.5561 57.6756 56.3561 56.2756 56.5361C54.6756 56.3961 55.2756 53.6861 56.4456 53.2461C58.0656 52.0861 71.9156 53.2461 79.8356 55.3161C81.0556 54.5061 82.9956 54.9261 84.2956 55.0661C85.8556 51.1561 90.8556 46.2861 95.8756 47.0661C100.476 47.3361 104.346 49.1461 105.876 54.3361C108.276 52.1661 112.626 51.4661 115.386 53.1061C116.102 51.4092 117.176 49.8867 118.534 48.6424C119.892 47.3982 121.503 46.4615 123.256 45.8961C127.866 42.6261 133.176 47.1161 134.616 51.9661C135.298 51.5244 136.104 51.3108 136.916 51.3561" fill="#060606"/>
<path d="M4.73553 236.066H466.676V250.516H4.73553V236.066Z" fill="white" stroke="#060606" stroke-width="2.38" stroke-miterlimit="10"/>
<path fill-rule="evenodd" clip-rule="evenodd" d="M282.186 155.416H183.806L145.316 234.546H247.256L282.186 155.416Z" fill="white" stroke="#060606" stroke-width="3" stroke-miterlimit="10"/>
<path d="M68.6055 222.376H152.726V235.206H68.6055V222.376Z" fill="white" stroke="#060606" stroke-width="3" stroke-miterlimit="10"/>
<path d="M152.606 222.376H253.056V235.206H152.606V222.376Z" fill="white" stroke="#060606" stroke-width="3.28" stroke-miterlimit="10"/>
<path d="M215.766 202.07C211.841 200.242 210.5 194.807 212.77 189.931C215.041 185.054 220.064 182.583 223.989 184.411C227.914 186.239 229.256 191.674 226.985 196.55C224.714 201.426 219.691 203.898 215.766 202.07Z" fill="white" stroke="#060606" stroke-width="3" stroke-miterlimit="10"/>
</svg>
