<svg width="458" height="457" viewBox="0 0 458 457" fill="none" xmlns="http://www.w3.org/2000/svg">
<path fill-rule="evenodd" clip-rule="evenodd" d="M19.1813 454.423C21.4717 454.568 23.7621 454.677 26.0524 454.767C55.9904 455.881 85.9013 452.468 115.821 451.716C126.219 451.395 136.627 451.631 146.999 452.423C147.27 452.423 147.538 452.369 147.788 452.265C148.038 452.161 148.265 452.009 148.456 451.818C148.647 451.626 148.798 451.398 148.901 451.148C149.003 450.897 149.056 450.629 149.054 450.359C147.135 433.783 144.736 417.243 143.487 400.568C143.475 399.687 143.616 398.811 143.903 397.978C143.967 397.915 144.256 397.191 144.519 397.146C144.437 397.209 144.827 397.091 144.573 397.146C146.076 396.901 147.552 395.281 146.465 393.724C135.231 376.523 119.895 360.789 114.961 340.311C113.793 334.78 109.584 334.436 105.103 332.164C103.699 331.331 100.277 329.022 99.7251 327.42C98.3943 321.644 100.739 315.986 93.895 313.641C89.3685 312.392 81.3929 311.333 76.8212 312.655C71.2446 314.465 71.661 320.802 68.4291 325.121C66.7544 327.619 63.9027 331.041 61.2683 331.458C59.9918 331.639 59.0503 329.059 57.7739 329.24C37.9118 334.065 10.8526 366.981 2.31569 385.214C0.387423 390.944 6.59772 389.215 6.2175 394.982C5.74675 405.918 4.71471 419.914 5.31221 430.868C5.88254 437.205 5.45706 443.886 7.43059 449.996C6.89647 450.639 7.66597 451.3 8.33589 451.572C9.08728 452.893 16.8185 454.251 19.1813 454.423Z" fill="white"/>
<path fill-rule="evenodd" clip-rule="evenodd" d="M70.8915 318.24C71.4166 315.914 75.1102 316.909 74.5127 319.227C73.5308 322.883 71.4518 326.15 68.5559 328.588C66.2195 330.601 63.3596 331.91 60.3087 332.363C60.5893 332.634 60.8609 332.933 61.1415 333.205C61.7813 333.844 62.4552 334.449 63.1603 335.015C64.5682 336.185 66.0838 337.219 67.6868 338.102C74.2049 341.606 81.574 342.412 88.8616 341.597C92.3536 341.27 95.789 340.495 99.0823 339.288C100.605 338.716 102.041 337.933 103.346 336.962L103.69 336.708C104.486 336.169 105.168 335.481 105.7 334.68C104.405 334.97 102.767 333.594 101.871 332.788C100.887 331.877 100.069 330.802 99.4535 329.611C98.2585 327.329 97.6429 324.387 98.6297 321.934C98.6379 321.9 98.6571 321.871 98.6842 321.85C98.7113 321.829 98.7447 321.817 98.779 321.817C98.8134 321.817 98.8468 321.829 98.8739 321.85C98.9009 321.871 98.9201 321.9 98.9284 321.934C99.2272 324.786 99.9967 327.465 102.043 329.575C102.955 330.52 104.036 331.288 105.229 331.838L105.392 331.919C105.919 332.087 106.365 332.445 106.642 332.924C106.722 332.91 106.805 332.91 106.886 332.924L107.085 332.987C106.935 332.681 106.866 332.341 106.886 332.001C106.884 331.699 106.995 331.407 107.198 331.183C107.4 330.959 107.68 330.819 107.981 330.792C108.282 330.765 108.582 330.852 108.822 331.035C109.062 331.219 109.224 331.486 109.276 331.783C109.222 331.611 109.158 331.783 109.276 331.838C109.394 331.892 109.276 331.838 109.276 331.783C109.281 331.807 109.281 331.832 109.276 331.856V331.783H109.366L109.629 331.901C109.973 332.028 110.362 332.073 110.706 332.182C111.465 332.376 112.134 332.827 112.598 333.458C112.92 333.928 113.125 334.468 113.196 335.033C116.584 336.639 119.693 338.778 122.403 341.37C128.341 347.173 132.497 354.434 135.891 361.948C137.63 365.777 139.169 369.679 140.68 373.599L140.916 374.214C142.676 378.359 143.823 382.739 144.32 387.214C144.345 387.611 144.226 388.003 143.985 388.319C144.07 388.65 144.107 388.991 144.093 389.333C144.098 389.384 144.098 389.436 144.093 389.487C144.407 389.49 144.714 389.569 144.99 389.717C145.266 389.865 145.502 390.078 145.678 390.338C145.887 390.27 146.112 390.27 146.32 390.338C147.651 390.763 147.868 392.221 148.131 393.443C148.385 394.709 148.509 395.999 148.502 397.29C148.505 397.541 148.441 397.788 148.317 398.006C148.193 398.224 148.013 398.405 147.796 398.531C146.954 398.902 146.049 399.146 145.18 399.481C144.519 399.735 143.867 399.97 143.206 400.196C143.515 400.905 143.743 401.646 143.885 402.405C144.199 403.453 144.459 404.517 144.664 405.592C146.085 412.934 147.081 420.348 148.412 427.699C149.082 431.384 149.86 435.041 150.648 438.698C151.034 440.509 151.45 442.32 151.897 444.13C152.132 445.035 152.386 446.031 152.639 446.982C152.712 447.253 152.784 447.534 152.866 447.806L152.992 448.294C153.3 448.46 153.55 448.716 153.708 449.028C153.865 449.302 153.967 449.605 154.007 449.918C154.046 450.232 154.024 450.551 153.939 450.855C153.855 451.16 153.711 451.445 153.516 451.694C153.321 451.943 153.078 452.151 152.802 452.305C152.165 452.623 151.428 452.677 150.751 452.457C150.074 452.237 149.51 451.76 149.181 451.128C148.751 450.195 148.447 449.208 148.276 448.195C147.995 447.127 147.724 446.049 147.461 444.981C145.769 437.684 144.511 430.293 143.695 422.847L143.632 422.313C143.179 418.483 142.726 414.636 142.455 410.788C142.322 408.893 142.216 406.998 142.138 405.103C142.138 404.125 142.138 403.148 142.21 402.17C142.21 401.744 142.274 401.319 142.292 400.893V400.83C142.292 400.785 142.292 400.73 142.292 400.667V400.595C140.97 401.011 139.63 401.355 138.281 401.645C135.413 402.307 132.468 402.575 129.527 402.441C129.935 407.303 130.433 412.155 131.211 416.971C131.935 421.613 132.765 426.239 133.701 430.849C134.171 433.167 134.675 435.476 135.213 437.775C135.493 438.997 135.819 440.219 136.118 441.46C136.314 442.128 136.276 442.844 136.009 443.487C136.353 444.393 136.652 445.343 136.914 446.203L136.996 446.457C137.521 447.987 138.517 449.553 137.476 451.056C137.218 451.428 136.876 451.735 136.479 451.952C136.081 452.169 135.638 452.29 135.185 452.305H135.131C134.657 452.548 134.111 452.616 133.592 452.495C132.804 452.649 132.008 452.803 131.22 452.939C129.259 453.277 127.291 453.56 125.318 453.79C121.552 454.233 117.768 454.487 113.992 454.622C100.151 455.12 86.2905 454.242 72.4396 454.496C65.3874 454.622 58.3261 454.939 51.2829 455.401C47.7704 455.609 44.2488 455.836 40.7363 456.008L39.6499 456.062C36.5053 456.247 33.3524 456.247 30.2077 456.062C30.182 456.061 30.1567 456.055 30.1333 456.044C30.11 456.033 30.0891 456.018 30.0719 455.998C29.5068 455.943 28.9823 455.68 28.5995 455.26C28.2167 454.84 28.0028 454.294 27.9988 453.726L29.3839 439.033C30.2168 430.282 31.0617 421.531 31.9187 412.78L32.0364 411.522C32.3261 408.57 32.5977 405.61 32.7335 402.65C32.0334 402.607 31.3363 402.544 30.6423 402.46C23.1165 401.521 15.7742 399.458 8.86094 396.34L8.5803 396.213L6.5615 395.371C6.5615 396.711 6.5615 398.087 6.5615 399.373C6.5615 401.572 6.5615 403.772 6.5615 405.963C6.5615 410.489 6.75162 415.016 6.97794 419.542C7.36722 427.527 7.88323 435.494 8.53504 443.46C8.7161 445.461 8.96053 447.462 9.12348 449.462C9.24037 449.997 9.18507 450.554 8.96552 451.055C8.74596 451.556 8.37343 451.974 7.90134 452.251C7.67466 452.377 7.41697 452.438 7.15766 452.425C6.89835 452.412 6.64786 452.326 6.43476 452.178C5.14925 451.572 5.11304 450.15 4.9863 448.901C4.89577 447.996 4.80524 447.027 4.72376 446.086C4.5427 444.088 4.38881 442.084 4.26207 440.074C3.7416 432.11 3.64187 424.123 3.96332 416.148C4.11722 412.418 4.35259 408.67 4.66039 404.94L4.73281 404.08C4.9863 401.102 5.14925 397.978 5.63811 394.982C3.53783 394.077 1.44661 392.854 0.477946 390.881C-0.771356 388.319 0.604685 386.128 2.56917 384.616C2.5502 384.371 2.56851 384.123 2.62348 383.883C3.25585 381.432 4.06364 379.03 5.04061 376.695C5.9459 374.35 6.97794 372.042 8.1005 369.788C12.613 360.718 18.6726 352.504 26.0072 345.517C29.6367 342.029 33.5998 338.906 37.8393 336.192C39.9291 334.862 42.0933 333.653 44.3212 332.571L44.6471 332.408C46.2489 331.578 47.9327 330.916 49.6715 330.435C49.8435 330.299 50.0336 330.172 50.2147 330.054C50.5488 329.859 50.9465 329.804 51.3213 329.9C51.6961 329.997 52.0174 330.238 52.2154 330.57C52.4301 330.416 52.6572 330.28 52.8943 330.163L53.1478 330.054C54.6959 329.348 56.5608 328.696 58.2446 329.149C58.7507 329.29 59.2166 329.548 59.6049 329.902C59.9933 330.255 60.2932 330.695 60.4807 331.186C61.3372 330.741 62.1684 330.248 62.9702 329.71C64.2717 328.781 65.4624 327.706 66.519 326.506C68.6751 324.181 70.1829 321.331 70.8915 318.24V318.24ZM144.89 392.863C144.74 392.891 144.587 392.891 144.437 392.863C144.718 392.863 144.148 393.063 143.994 393.144C143.713 393.307 143.424 393.47 143.089 393.624C142.41 393.977 141.713 394.303 140.997 394.611C139.601 395.198 138.156 395.662 136.679 395.996C135.213 396.325 133.718 396.51 132.216 396.548C131.141 396.595 130.064 396.485 129.02 396.222C129.138 398.033 129.265 399.843 129.419 401.654L131.446 401.183C133.483 400.721 135.511 400.278 137.512 399.662C139.024 399.219 140.499 398.712 141.975 398.159C142.735 397.87 143.505 397.562 144.256 397.254C144.628 397.091 144.981 396.892 145.334 396.702L145.623 396.53C145.558 395.725 145.434 394.926 145.252 394.14C145.171 393.769 145.008 393.289 144.89 392.863ZM5.73769 384.363C5.47515 385.205 5.08588 385.983 4.18059 386.173C3.90746 386.237 3.62091 386.208 3.36582 386.092V386.201C2.62348 387.73 2.40621 389.333 4.10816 390.51C4.88249 391.053 5.69653 391.537 6.5434 391.958C8.09145 392.691 9.74813 393.289 11.3052 393.896L11.6221 394.013C14.4104 395.109 17.2439 396.104 20.1137 396.937C23.032 397.791 26.0053 398.444 29.0127 398.893C30.2801 399.074 31.5566 399.201 32.8331 399.282C32.8331 397.553 32.8331 395.833 32.8331 394.113L31.4932 393.941C30.1625 393.787 28.8407 393.597 27.5281 393.361C24.7676 392.875 22.045 392.194 19.3804 391.324C14.5056 389.711 9.90514 387.363 5.73769 384.363V384.363ZM59.6297 331.62C58.5071 330.435 56.3707 330.86 55.0218 331.43C54.6144 331.611 54.207 331.783 53.8177 332.001H53.7453C53.2836 332.263 53.2927 332.417 53.5099 332.906C53.8206 333.595 54.1806 334.261 54.5872 334.898C56.2413 337.616 58.3548 340.027 60.8337 342.022C69.5517 349.138 82.0809 351.646 92.9806 349.265C98.2776 348.225 103.175 345.715 107.112 342.022L107.465 341.669C109.013 340.121 111.15 337.867 110.996 335.559C110.924 334.454 110.018 334.391 109.095 334.173C108.729 334.096 108.375 333.968 108.045 333.793C108.298 334.88 106.949 336.509 106.234 337.179C104.755 338.587 103.043 339.726 101.174 340.547C97.6045 342.035 93.833 342.981 89.9841 343.353C85.6401 343.924 81.2342 343.823 76.9208 343.054C73.1466 342.391 69.5335 341.014 66.2745 338.999C64.7696 338.07 63.3729 336.977 62.1102 335.74L61.8477 335.477C60.8546 334.567 60.0222 333.496 59.3853 332.308H58.7878C58.7558 332.305 58.7257 332.291 58.7013 332.27C58.6768 332.25 58.6591 332.222 58.6504 332.191C58.6417 332.16 58.6423 332.127 58.6523 332.096C58.6622 332.066 58.681 332.039 58.7063 332.019L59.1861 331.774C59.1861 331.684 59.1318 331.593 59.1137 331.512C59.1108 331.494 59.1126 331.476 59.1189 331.46C59.1252 331.443 59.1359 331.429 59.1497 331.418C59.1635 331.407 59.1801 331.399 59.1976 331.397C59.2152 331.394 59.2331 331.397 59.2495 331.403L59.5211 331.593L59.6297 331.62Z" fill="#060606"/>
<path fill-rule="evenodd" clip-rule="evenodd" d="M114.852 261.37C103.355 253.756 80.3156 254.58 67.6506 259.251C55.3024 263.162 50.9751 274.089 48.9292 285.885C46.4306 299.148 46.7655 318.258 64.6993 318.032C67.2161 319.245 70.0043 319.779 72.6116 320.748C76.2328 321.988 79.6819 323.418 83.3031 324.496C90.4727 326.922 98.3042 326.471 105.148 323.237C108.887 321.427 110.435 318.611 112.879 315.615C119.986 306.897 123.57 294.413 123.245 283.323C122.683 275.547 121.398 266.512 114.852 261.37Z" fill="white"/>
<path fill-rule="evenodd" clip-rule="evenodd" d="M129.41 293.517C128.233 286.184 127.907 278.733 126.359 271.464C124.901 264.62 122.185 258.156 117.433 252.942C113.115 248.321 107.754 244.801 101.798 242.676C90.3011 238.448 77.0838 239.399 65.9668 244.341C55.5771 249.093 47.2287 257.403 42.4292 267.77C39.4116 274.425 37.5737 281.553 36.9975 288.836C36.2189 296.984 36.0922 305.132 35.8206 313.279C35.8206 314.293 35.721 315.298 35.712 316.303C35.784 317.375 36.0541 318.425 36.5086 319.399C36.5305 319.473 36.5641 319.544 36.6082 319.607C36.3366 319.607 36.065 319.68 35.7935 319.725C35.7267 319.742 35.6675 319.78 35.6251 319.834C35.5828 319.888 35.5598 319.955 35.5598 320.024C35.5598 320.093 35.5828 320.159 35.6251 320.213C35.6675 320.268 35.7267 320.306 35.7935 320.323C38.2856 320.749 40.8066 320.985 43.3345 321.029C45.9418 321.155 48.5581 321.228 51.1744 321.318L58.815 321.572L62.8345 321.708L64.7447 321.771H65.7043C65.9578 321.771 66.3833 321.943 66.4104 321.771L66.5643 321.843C66.6249 321.874 66.6825 321.911 66.7363 321.952C66.9033 322.052 67.0941 322.104 67.2886 322.104C67.483 322.104 67.6738 322.052 67.8408 321.952L67.9313 321.898C68.154 321.768 68.3263 321.567 68.4202 321.327C68.5426 321.478 68.6935 321.603 68.8642 321.695C69.0349 321.787 69.222 321.844 69.4149 321.864C69.6079 321.884 69.8028 321.865 69.9886 321.81C70.1744 321.754 70.3474 321.663 70.4978 321.54C70.6482 321.418 70.773 321.267 70.8651 321.096C70.9572 320.925 71.0147 320.738 71.0345 320.545C71.0542 320.352 71.0358 320.158 70.9802 319.972C70.9246 319.786 70.833 319.613 70.7106 319.463C69.9863 318.557 62.8345 296.513 65.7948 279.72L77.6723 278.145C79.1207 278 81.1848 277.783 83.8825 277.484C84.5344 275.336 84.9568 273.914 85.15 273.22C85.15 273.148 85.15 273.066 85.2133 272.985L86.1186 274.488L87.5671 277.529C101.979 277.288 110.954 277.176 114.49 277.194C114.799 280.28 114.908 283.383 114.816 286.483C114.418 292.186 114.011 297.889 113.431 303.575C113.047 307.186 112.173 310.728 110.833 314.103C108.742 319.408 102.685 324.442 96.7467 324.442C93.0622 324.442 84.7335 321.463 83.5204 320.82C82.3073 320.178 81.5922 321.862 82.6966 322.522C84.9327 323.853 91.1068 326.678 96.7467 326.678C104.949 326.678 111.132 318.901 111.892 317.788C119.414 317.38 126.957 317.553 134.452 318.304C134.606 318.302 134.757 318.265 134.894 318.196C135.031 318.127 135.15 318.028 135.243 317.905C135.336 317.783 135.399 317.641 135.428 317.491C135.457 317.34 135.452 317.184 135.412 317.036C132.722 309.389 130.714 301.518 129.41 293.517V293.517Z" fill="#060606"/>
<path fill-rule="evenodd" clip-rule="evenodd" d="M98.8017 312.12C97.5024 311.584 96.373 310.704 95.5336 309.577C95.4021 309.413 95.3067 309.224 95.2536 309.021C95.2006 308.818 95.1911 308.607 95.2258 308.4C95.2977 307.973 95.5353 307.593 95.8867 307.341C96.0502 307.209 96.239 307.112 96.4414 307.056C96.6438 307 96.8555 306.986 97.0636 307.015C97.2661 307.05 97.4591 307.127 97.6304 307.241C97.8018 307.355 97.9478 307.503 98.0594 307.676L98.1228 307.757C98.6155 308.433 99.2647 308.98 100.015 309.35C100.739 309.704 101.549 309.845 102.35 309.758C103.84 309.508 105.192 308.734 106.162 307.576L106.587 307.123C106.672 306.996 106.796 306.901 106.94 306.852C107.101 306.793 107.277 306.793 107.438 306.852C107.593 306.905 107.726 307.006 107.818 307.141C107.917 307.278 107.962 307.445 107.945 307.612C107.805 308.811 107.228 309.917 106.325 310.717C105.343 311.658 104.107 312.29 102.769 312.533C101.431 312.776 100.051 312.62 98.8017 312.084V312.12ZM103.437 293.643C104.876 294.549 107.058 296.568 105.528 298.749C103.717 300.669 101.065 298.469 99.7704 297.473C98.5663 296.703 97.2084 298.686 98.331 299.582C107.701 306.526 111.512 293.87 104.161 292.611C103.355 292.476 103.057 293.372 103.437 293.643ZM86.6618 285.568C86.8157 283.586 89.8393 283.133 90.1381 285.098C90.3936 286.796 90.0985 288.531 89.2962 290.049C89.1521 290.342 88.9151 290.579 88.6222 290.723C88.3293 290.866 87.9971 290.909 87.6774 290.844C87.3577 290.779 87.0687 290.609 86.8554 290.362C86.6422 290.116 86.5168 289.805 86.4988 289.479C86.3934 288.174 86.4481 286.86 86.6618 285.568ZM109.62 284.663C109.799 284.373 110.066 284.148 110.382 284.02C110.697 283.891 111.045 283.866 111.376 283.948C113.649 284.609 112.979 287.841 112.182 289.38C112.059 289.586 111.891 289.761 111.69 289.892C111.489 290.024 111.261 290.108 111.023 290.139C110.785 290.169 110.543 290.145 110.316 290.069C110.089 289.992 109.882 289.865 109.71 289.696C108.678 288.465 108.19 286.021 109.502 284.817C109.531 284.774 109.561 284.731 109.593 284.69L109.62 284.663ZM89.269 276.868L89.6221 276.805C90.7356 276.615 92.1207 276.425 92.8992 277.321C93.1337 277.564 93.2648 277.889 93.2648 278.226C93.2648 278.564 93.1337 278.889 92.8992 279.132C91.9215 279.928 90.8261 279.621 89.6492 279.684C88.6831 279.737 87.7263 279.901 86.7975 280.173C84.8272 280.817 82.9745 281.777 81.3115 283.015C81.0852 283.169 80.8498 282.871 80.9584 282.653C82.101 280.652 83.8248 279.045 85.9013 278.045C86.9521 277.5 88.0778 277.112 89.2418 276.896L89.269 276.868ZM107.547 275.963L107.827 276.017C110.815 276.642 114.699 277.891 116.12 280.834C116.174 281.25 116.12 281.332 116.066 281.395C116.005 281.481 115.915 281.542 115.812 281.567H115.658C115.085 281.406 114.53 281.188 114.002 280.915L113.467 280.653C112.843 280.337 112.199 280.062 111.539 279.829C110.11 279.366 108.64 279.042 107.149 278.86C106.823 278.835 106.51 278.722 106.243 278.534C105.972 278.314 105.789 278.003 105.728 277.659C105.666 277.315 105.73 276.961 105.908 276.66C106.063 276.399 106.298 276.196 106.578 276.081C106.868 275.976 107.181 275.951 107.483 276.008L107.547 275.963Z" fill="#060606"/>
<path fill-rule="evenodd" clip-rule="evenodd" d="M125.644 279.077L125.173 279.005C125.038 278.928 124.891 278.876 124.738 278.851C124.361 278.755 123.976 278.688 123.589 278.652C118.157 277.421 105.483 279.168 104.985 283.821C103.256 284.4 101.744 283.884 99.7342 283.939C98.2043 277.52 71.6702 278.426 70.4209 282.291C68.963 282.009 67.4782 281.89 65.994 281.938C62.9991 281.873 60.0068 282.156 57.0769 282.78C51.5908 283.685 44.104 284.672 47.9153 291.525C48.0683 291.667 48.2592 291.762 48.465 291.797C48.6707 291.833 48.8824 291.808 49.0742 291.726C49.266 291.643 49.4297 291.507 49.5454 291.333C49.6611 291.159 49.7238 290.955 49.7259 290.747C48.4404 287.497 51.3373 287.125 53.5643 286.22C59.005 284.374 64.7987 283.81 70.4933 284.572C70.9803 285.12 71.6057 285.527 72.3039 285.749C76.1333 286.392 74.1145 289.235 76.5406 289.651C76.088 299.564 88.1284 304.978 95.1082 298.46C97.8874 295.744 98.5573 291.706 99.2001 288.067C99.3468 288.04 99.4852 287.979 99.6045 287.889C99.7238 287.8 99.8209 287.684 99.8881 287.551C100.703 286.736 101.219 285.976 102.848 285.74C103.877 285.557 104.936 285.686 105.89 286.111C105.89 286.193 105.981 286.283 106.026 286.365C106.101 286.486 106.199 286.591 106.316 286.673C104.713 296.559 112.381 302.805 120.121 297.681C123.48 294.513 124.195 289.669 124.331 285.342C124.578 285.195 124.77 284.971 124.876 284.704C124.982 284.437 124.998 284.143 124.919 283.866C124.826 283.439 124.885 282.992 125.087 282.603C125.289 282.214 125.62 281.909 126.024 281.739C126.263 281.593 126.455 281.381 126.576 281.128C126.697 280.875 126.742 280.592 126.705 280.314C126.669 280.037 126.553 279.775 126.371 279.562C126.189 279.349 125.949 279.193 125.68 279.114L125.644 279.077ZM92.4285 283.803C91.4689 283.586 91.0615 285.07 92.0211 285.279C92.6926 285.408 93.287 285.795 93.6778 286.356V286.419C94.2029 287.252 95.5337 286.483 94.9995 285.65C94.7167 285.174 94.3394 284.762 93.891 284.438C93.4426 284.114 92.9325 283.886 92.3923 283.767L92.4285 283.803ZM120.565 282.898C120.393 282.812 120.196 282.794 120.011 282.847C119.827 282.899 119.668 283.019 119.568 283.182C119.467 283.345 119.43 283.54 119.466 283.729C119.501 283.917 119.606 284.086 119.759 284.201V284.201C119.921 284.31 120.059 284.45 120.165 284.613C120.271 284.777 120.342 284.96 120.375 285.152V285.152C120.375 286.139 121.941 286.139 121.905 285.152C121.869 284.687 121.726 284.237 121.487 283.836C121.249 283.436 120.921 283.096 120.529 282.843L120.565 282.898Z" fill="#060606"/>
<path fill-rule="evenodd" clip-rule="evenodd" d="M238.116 204.061C238.116 204.061 245.708 112.557 253.8 126.129C261.892 139.702 255.134 166.636 255.134 166.636C255.134 166.636 265.245 122.068 272.053 131.535C278.86 141.002 272.386 163.271 259.884 176.231C259.884 176.231 291.893 132.454 293.026 147.213C294.16 161.973 264.765 184.006 264.765 184.006C264.765 184.006 307.999 149.709 306.903 161.999C305.807 174.289 253.042 196.679 253.042 196.679C253.042 196.679 252.307 201.922 251.369 203.542C250.43 205.161 238.116 204.061 238.116 204.061Z" fill="white" stroke="#060606" stroke-width="2.6" stroke-miterlimit="10"/>
<path d="M327.559 157.75L202.87 174.969L217.565 281.385L342.255 264.166L327.559 157.75Z" fill="white" stroke="#060606" stroke-width="2.6" stroke-miterlimit="10"/>
<path d="M337.932 156.318L260.989 166.944L275.684 273.36L352.627 262.734L337.932 156.318Z" fill="white" stroke="#060606" stroke-width="2.41" stroke-miterlimit="10"/>
<path fill-rule="evenodd" clip-rule="evenodd" d="M202.878 174.969L259.45 167.156L247.641 213.215L221.445 216.833L202.878 174.969Z" fill="white" stroke="#060606" stroke-width="2.6" stroke-miterlimit="10"/>
<path fill-rule="evenodd" clip-rule="evenodd" d="M260.989 166.944L280.851 209.37L331.054 202.437L338.951 157.597L262.86 167.73" fill="white"/>
<path d="M260.989 166.944L280.851 209.37L331.054 202.437L338.951 157.597L262.86 167.73" stroke="#060606" stroke-width="2.6" stroke-miterlimit="10"/>
<path fill-rule="evenodd" clip-rule="evenodd" d="M285.599 192.964C285.599 192.964 320.688 108.108 324.248 123.492C327.808 138.876 313.208 162.463 313.208 162.463C313.208 162.463 336.401 123.086 339.994 134.19C343.587 145.294 330.644 164.502 314.795 173.049C314.795 173.049 358.608 141.082 355.192 155.495C351.776 169.907 317.075 181.939 317.075 181.939C317.075 181.939 368.7 162.421 363.921 173.8C359.143 185.179 302.045 190.435 302.045 190.435C302.045 190.435 299.755 195.206 298.36 196.459C296.966 197.713 285.599 192.964 285.599 192.964Z" fill="white" stroke="#060606" stroke-width="2.6" stroke-miterlimit="10"/>
<path d="M180.548 192.533H100.12" stroke="#060606" stroke-width="3" stroke-miterlimit="10"/>
<path d="M388.927 187.661H457.185" stroke="#060606" stroke-width="3" stroke-miterlimit="10"/>
<path d="M287.798 84.0867V0" stroke="#060606" stroke-width="3" stroke-miterlimit="10"/>
<path d="M286.567 302.21V380.211" stroke="#060606" stroke-width="3" stroke-miterlimit="10"/>
<path d="M189.078 240.072L157.403 248.602" stroke="#060606" stroke-width="3" stroke-miterlimit="10"/>
<path d="M213.455 274.192L190.309 293.68" stroke="#060606" stroke-width="3" stroke-miterlimit="10"/>
<path d="M253.678 293.68L251.233 320.483" stroke="#060606" stroke-width="3" stroke-miterlimit="10"/>
<path d="M389.15 152.156L421.68 147.883" stroke="#060606" stroke-width="3" stroke-miterlimit="10"/>
<path d="M369.474 115.13L394.996 98.8562" stroke="#060606" stroke-width="3" stroke-miterlimit="10"/>
<path d="M332.192 90.497L338.14 64.2402" stroke="#060606" stroke-width="3" stroke-miterlimit="10"/>
<path d="M237.421 89.9845L232.395 57.5566" stroke="#060606" stroke-width="3" stroke-miterlimit="10"/>
<path d="M200.822 110.463L183.984 85.3176" stroke="#060606" stroke-width="3" stroke-miterlimit="10"/>
<path d="M177.044 148.31L150.667 142.942" stroke="#060606" stroke-width="3" stroke-miterlimit="10"/>
<path d="M339.474 295.987L346.927 327.937" stroke="#060606" stroke-width="3" stroke-miterlimit="10"/>
<path d="M374.38 272.773L393.098 296.568" stroke="#060606" stroke-width="3" stroke-miterlimit="10"/>
<path d="M395.218 233.234L421.919 236.568" stroke="#060606" stroke-width="3" stroke-miterlimit="10"/>
</svg>
